<svg xmlns="http://www.w3.org/2000/svg" viewBox="0 0 100 100" fill="none">
  <!-- Amazon Logo matching image 1: Black 'a' and signature orange smile arrow -->
  <path d="M49.2 24.5C39.5 24.5 32 30.2 31.2 38.8H41.5C42.1 34.5 45.2 32.2 49.3 32.2C54.1 32.2 57.3 35.1 57.3 40.5V43.2C54.5 43.1 50.8 43 46.5 43.3C35.2 44.1 28.5 50.2 28.5 58.8C28.5 67.2 35.1 72.5 44.4 72.5C51.6 72.5 56.4 69.1 58.6 63.8V71.5H68V40.2C68 29.8 60.5 24.5 49.2 24.5ZM47.8 64.9C42.8 64.9 39.1 62.1 39.1 57.8C39.1 53 43.3 50.1 50.4 49.7C53.3 49.5 55.7 49.6 57.5 49.8C57.1 59.2 52.8 64.9 47.8 64.9Z" fill="#111111"/>
  <!-- Orange Smile Arrow with dimple curve -->
  <path d="M12.5 75C32.8 88.5 67.2 88.2 87.5 73.2" stroke="#FF9900" stroke-width="7" stroke-linecap="round"/>
  <path d="M80.2 68.5L88.5 73.2L85.2 83.5" stroke="#FF9900" stroke-width="7" stroke-linecap="round" stroke-linejoin="round"/>
</svg>
